<svg width="159" height="39" viewBox="0 0 159 39" fill="none" xmlns="http://www.w3.org/2000/svg">
<path d="M33.2734 0H5.32802C2.38544 0 0 2.38543 0 5.32801V33.2734C0 36.216 2.38544 38.6014 5.32802 38.6014H33.2734C36.216 38.6014 38.6014 36.216 38.6014 33.2734V5.32801C38.6014 2.38543 36.216 0 33.2734 0Z" fill="#081A51"/>
<path d="M12.2251 6.34469C12.1772 6.33815 12.1286 6.33815 12.0807 6.34469L7.31125 8.32152C7.21676 8.36129 7.13611 8.42805 7.0794 8.51344C7.02269 8.59884 6.99243 8.69909 6.99243 8.8016C6.99243 8.90412 7.02269 9.00435 7.0794 9.08975C7.13611 9.17515 7.21676 9.24192 7.31125 9.28169L17.0008 13.2542C17.0779 13.2889 17.1623 13.3044 17.2467 13.2993C17.3311 13.2941 17.413 13.2685 17.4852 13.2247C17.5575 13.1808 17.618 13.12 17.6616 13.0475C17.7051 12.975 17.7303 12.893 17.7351 12.8086V8.88005C17.7324 8.76893 17.6951 8.66142 17.6284 8.57254L12.2251 6.34469Z" fill="white"/>
<path d="M20.8726 9.90295V12.9215C20.8721 13.0075 20.893 13.0923 20.9333 13.1683C20.9736 13.2443 21.0322 13.3091 21.1036 13.357C21.1751 13.4048 21.2573 13.4342 21.3429 13.4426C21.4285 13.4509 21.5149 13.4379 21.5943 13.4048L25.46 11.7919L20.8726 9.90295Z" fill="white"/>
<path d="M31.3027 8.41563L26.5207 6.37605C26.4575 6.34804 26.3891 6.33356 26.3199 6.33356C26.2507 6.33356 26.1823 6.34804 26.1191 6.37605L22.2407 7.99517L28.441 10.5493L31.309 9.35071C31.3961 9.3072 31.4693 9.24015 31.5202 9.15717C31.5711 9.07418 31.5978 8.97858 31.5971 8.88121C31.5965 8.78385 31.5686 8.68861 31.5165 8.60632C31.4645 8.52402 31.3904 8.45797 31.3027 8.41563V8.41563Z" fill="#0BBBEF"/>
<path d="M17.1073 8.35919C17.0209 8.40059 16.948 8.46556 16.8969 8.54661C16.8459 8.62767 16.8187 8.72151 16.8186 8.81731V31.7485C16.8173 31.8516 16.847 31.9527 16.9038 32.0388C16.9607 32.1248 17.0421 32.1918 17.1374 32.231C17.2328 32.2703 17.3378 32.2799 17.4387 32.2588C17.5397 32.2376 17.6319 32.1867 17.7035 32.1124L21.2618 28.5542C21.3106 28.5063 21.3493 28.4491 21.3758 28.3861C21.4022 28.3231 21.4158 28.2554 21.4158 28.187C21.4158 28.1187 21.4022 28.051 21.3758 27.988C21.3493 27.9249 21.3106 27.8678 21.2618 27.8199L20.4585 27.0166C20.3616 26.9191 20.3072 26.7871 20.3072 26.6495C20.3072 26.5119 20.3616 26.38 20.4585 26.2824L21.2618 25.4791C21.3106 25.4312 21.3493 25.3741 21.3758 25.311C21.4022 25.248 21.4158 25.1803 21.4158 25.112C21.4158 25.0436 21.4022 24.976 21.3758 24.9129C21.3493 24.8499 21.3106 24.7928 21.2618 24.7449L20.4585 23.9416C20.3616 23.844 20.3072 23.712 20.3072 23.5745C20.3072 23.4369 20.3616 23.3049 20.4585 23.2073L21.2744 22.3915C21.368 22.2934 21.4202 22.1631 21.4202 22.0275C21.4202 21.8919 21.368 21.7616 21.2744 21.6635L20.4271 20.7661C20.3347 20.6712 20.2831 20.544 20.2831 20.4115C20.2831 20.2791 20.3347 20.1519 20.4271 20.057L21.4877 18.9211C21.5337 18.8749 21.5701 18.82 21.5949 18.7597C21.6197 18.6994 21.6323 18.6348 21.6321 18.5696V10.2168L17.1073 8.35919Z" fill="white"/>
<path d="M12.1933 6.33209L7.32337 8.30892C7.22458 8.34968 7.1401 8.41885 7.08066 8.50767C7.02123 8.59649 6.9895 8.70096 6.9895 8.80783C6.9895 8.91471 7.02123 9.01918 7.08066 9.108C7.1401 9.19682 7.22458 9.26598 7.32337 9.30674L20.2825 14.641L26.2946 12.1308L12.1933 6.33209Z" fill="white"/>
<path d="M12.1933 6.33209L7.32337 8.30892C7.22458 8.34968 7.1401 8.41885 7.08066 8.50767C7.02123 8.59649 6.9895 8.70096 6.9895 8.80783C6.9895 8.91471 7.02123 9.01918 7.08066 9.108C7.1401 9.19682 7.22458 9.26598 7.32337 9.30674L20.2825 14.641L26.2946 12.1308L12.1933 6.33209Z" fill="white"/>
<path d="M56.8749 26.4825C56.7231 26.4825 56.599 26.4342 56.5025 26.3377C56.4059 26.2273 56.3576 26.1032 56.3576 25.9653V15.2482H52.6749C52.5232 15.2482 52.3991 15.1999 52.3025 15.1034C52.206 14.993 52.1577 14.8689 52.1577 14.731V12.5172C52.1577 12.3655 52.206 12.2414 52.3025 12.1448C52.3991 12.0483 52.5232 12 52.6749 12H63.8058C63.9575 12 64.0816 12.0483 64.1782 12.1448C64.2747 12.2414 64.323 12.3655 64.323 12.5172V14.731C64.323 14.8689 64.2747 14.993 64.1782 15.1034C64.0816 15.1999 63.9575 15.2482 63.8058 15.2482H60.1231V25.9653C60.1231 26.1032 60.0748 26.2273 59.9783 26.3377C59.8817 26.4342 59.7576 26.4825 59.6058 26.4825H56.8749Z" fill="#081A51"/>
<path d="M65.4221 26.4825C65.2704 26.4825 65.1463 26.4342 65.0497 26.3377C64.9532 26.2273 64.9049 26.1032 64.9049 25.9653V16.2413C64.9049 16.1034 64.9532 15.9861 65.0497 15.8896C65.1463 15.7792 65.2704 15.7241 65.4221 15.7241H67.8014C67.9531 15.7241 68.0772 15.7792 68.1738 15.8896C68.2841 15.9861 68.3393 16.1034 68.3393 16.2413V17.0689C68.6979 16.6413 69.1324 16.3103 69.6427 16.0758C70.1669 15.8413 70.7531 15.7241 71.4013 15.7241H72.3116C72.4634 15.7241 72.5875 15.7723 72.6841 15.8689C72.7806 15.9654 72.8289 16.0896 72.8289 16.2413V18.3723C72.8289 18.5102 72.7806 18.6344 72.6841 18.7447C72.5875 18.8413 72.4634 18.8895 72.3116 18.8895H70.3048C69.7393 18.8895 69.2979 19.0481 68.9807 19.3654C68.6772 19.6688 68.5255 20.1033 68.5255 20.6688V25.9653C68.5255 26.1032 68.4703 26.2273 68.36 26.3377C68.2634 26.4342 68.1393 26.4825 67.9876 26.4825H65.4221Z" fill="#081A51"/>
<path d="M79.3087 26.6894C78.1501 26.6894 77.1708 26.5032 76.3708 26.1308C75.5846 25.7584 74.9777 25.2273 74.5501 24.5377C74.1363 23.8343 73.9019 22.9998 73.8467 22.0343C73.8329 21.7584 73.826 21.4481 73.826 21.1033C73.826 20.7447 73.8329 20.4343 73.8467 20.1723C73.9019 19.193 74.1501 18.3585 74.5915 17.6689C75.0329 16.9792 75.6467 16.4482 76.4329 16.0758C77.2328 15.7034 78.1914 15.5172 79.3087 15.5172C80.4397 15.5172 81.3983 15.7034 82.1845 16.0758C82.9845 16.4482 83.6051 16.9792 84.0465 17.6689C84.4879 18.3585 84.7361 19.193 84.7913 20.1723C84.8051 20.4343 84.812 20.7447 84.812 21.1033C84.812 21.4481 84.8051 21.7584 84.7913 22.0343C84.7361 22.9998 84.4948 23.8343 84.0672 24.5377C83.6534 25.2273 83.0465 25.7584 82.2465 26.1308C81.4603 26.5032 80.481 26.6894 79.3087 26.6894ZM79.3087 24.1653C79.9293 24.1653 80.3776 23.9791 80.6535 23.6067C80.9431 23.2343 81.1086 22.6757 81.15 21.9308C81.1638 21.724 81.1707 21.4481 81.1707 21.1033C81.1707 20.7585 81.1638 20.4826 81.15 20.2757C81.1086 19.5447 80.9431 18.993 80.6535 18.6206C80.3776 18.2344 79.9293 18.0413 79.3087 18.0413C78.7156 18.0413 78.2673 18.2344 77.9639 18.6206C77.6742 18.993 77.5156 19.5447 77.488 20.2757C77.4742 20.4826 77.4673 20.7585 77.4673 21.1033C77.4673 21.4481 77.4742 21.724 77.488 21.9308C77.5156 22.6757 77.6742 23.2343 77.9639 23.6067C78.2673 23.9791 78.7156 24.1653 79.3087 24.1653Z" fill="#081A51"/>
<path d="M90.8187 26.6894C90.0325 26.6894 89.329 26.5101 88.7084 26.1515C88.1015 25.7928 87.6256 25.2687 87.2808 24.5791C86.936 23.8756 86.7636 23.0205 86.7636 22.0136V16.2413C86.7636 16.0896 86.8119 15.9654 86.9084 15.8689C87.005 15.7723 87.1291 15.7241 87.2808 15.7241H89.867C90.0187 15.7241 90.1428 15.7723 90.2394 15.8689C90.3497 15.9654 90.4049 16.0896 90.4049 16.2413V21.8895C90.4049 23.2412 91.0049 23.917 92.2049 23.917C92.7704 23.917 93.2186 23.7446 93.5497 23.3998C93.8945 23.0412 94.0669 22.5377 94.0669 21.8895V16.2413C94.0669 16.0896 94.1152 15.9654 94.2117 15.8689C94.3083 15.7723 94.4324 15.7241 94.5841 15.7241H97.1703C97.322 15.7241 97.4461 15.7723 97.5427 15.8689C97.6392 15.9654 97.6875 16.0896 97.6875 16.2413V25.9653C97.6875 26.1032 97.6392 26.2273 97.5427 26.3377C97.4461 26.4342 97.322 26.4825 97.1703 26.4825H94.7703C94.6324 26.4825 94.5083 26.4342 94.3979 26.3377C94.3014 26.2273 94.2531 26.1032 94.2531 25.9653V25.1791C93.8945 25.6756 93.4255 26.0549 92.8462 26.317C92.2807 26.5652 91.6049 26.6894 90.8187 26.6894Z" fill="#081A51"/>
<path d="M104.549 26.6894C103.652 26.6894 102.887 26.5928 102.252 26.3997C101.631 26.1928 101.121 25.9446 100.721 25.6549C100.335 25.3653 100.045 25.0687 99.8521 24.7653C99.659 24.448 99.5556 24.1722 99.5418 23.9377C99.528 23.786 99.5763 23.6618 99.6866 23.5653C99.797 23.4687 99.9142 23.4205 100.038 23.4205H102.397C102.438 23.4205 102.473 23.4274 102.5 23.4412C102.542 23.455 102.583 23.4825 102.624 23.5239C102.804 23.6205 102.983 23.7446 103.162 23.8963C103.342 24.0343 103.549 24.1584 103.783 24.2687C104.018 24.3791 104.3 24.4342 104.631 24.4342C105.018 24.4342 105.342 24.3584 105.604 24.2067C105.866 24.0412 105.997 23.8136 105.997 23.5239C105.997 23.3032 105.935 23.1239 105.811 22.986C105.687 22.8343 105.431 22.6895 105.045 22.5515C104.673 22.4136 104.107 22.2757 103.349 22.1377C102.631 21.9722 102.004 21.7584 101.466 21.4964C100.928 21.2205 100.514 20.8688 100.225 20.4412C99.9349 19.9998 99.7901 19.4688 99.7901 18.8481C99.7901 18.2964 99.9694 17.7654 100.328 17.2551C100.687 16.7447 101.211 16.331 101.9 16.0137C102.59 15.6827 103.445 15.5172 104.466 15.5172C105.252 15.5172 105.942 15.6137 106.535 15.8068C107.128 15.9861 107.624 16.2206 108.024 16.5103C108.424 16.7999 108.728 17.0965 108.935 17.3999C109.142 17.7033 109.252 17.9792 109.266 18.2275C109.28 18.3654 109.238 18.4895 109.142 18.5999C109.045 18.6964 108.935 18.7447 108.811 18.7447H106.659C106.604 18.7447 106.549 18.7378 106.493 18.724C106.438 18.6964 106.39 18.6688 106.349 18.6413C106.183 18.5585 106.018 18.4482 105.852 18.3102C105.687 18.1723 105.493 18.0482 105.273 17.9378C105.052 17.8275 104.776 17.7723 104.445 17.7723C104.073 17.7723 103.783 17.8551 103.576 18.0206C103.369 18.1861 103.266 18.3999 103.266 18.6619C103.266 18.8413 103.321 19.0068 103.431 19.1585C103.556 19.3102 103.797 19.4481 104.156 19.5723C104.528 19.6964 105.1 19.8343 105.873 19.9861C106.824 20.1378 107.583 20.386 108.149 20.7309C108.714 21.0619 109.114 21.455 109.349 21.9102C109.597 22.3515 109.721 22.8205 109.721 23.317C109.721 23.9791 109.521 24.5653 109.121 25.0756C108.721 25.586 108.135 25.9859 107.362 26.2756C106.604 26.5515 105.666 26.6894 104.549 26.6894Z" fill="#081A51"/>
<path d="M115.984 26.6894C115.088 26.6894 114.322 26.5928 113.688 26.3997C113.067 26.1928 112.557 25.9446 112.157 25.6549C111.771 25.3653 111.481 25.0687 111.288 24.7653C111.095 24.448 110.991 24.1722 110.977 23.9377C110.964 23.786 111.012 23.6618 111.122 23.5653C111.233 23.4687 111.35 23.4205 111.474 23.4205H113.833C113.874 23.4205 113.908 23.4274 113.936 23.4412C113.977 23.455 114.019 23.4825 114.06 23.5239C114.239 23.6205 114.419 23.7446 114.598 23.8963C114.777 24.0343 114.984 24.1584 115.219 24.2687C115.453 24.3791 115.736 24.4342 116.067 24.4342C116.453 24.4342 116.777 24.3584 117.039 24.2067C117.301 24.0412 117.433 23.8136 117.433 23.5239C117.433 23.3032 117.37 23.1239 117.246 22.986C117.122 22.8343 116.867 22.6895 116.481 22.5515C116.108 22.4136 115.543 22.2757 114.784 22.1377C114.067 21.9722 113.439 21.7584 112.902 21.4964C112.364 21.2205 111.95 20.8688 111.66 20.4412C111.371 19.9998 111.226 19.4688 111.226 18.8481C111.226 18.2964 111.405 17.7654 111.764 17.2551C112.122 16.7447 112.646 16.331 113.336 16.0137C114.026 15.6827 114.881 15.5172 115.902 15.5172C116.688 15.5172 117.377 15.6137 117.97 15.8068C118.564 15.9861 119.06 16.2206 119.46 16.5103C119.86 16.7999 120.163 17.0965 120.37 17.3999C120.577 17.7033 120.688 17.9792 120.701 18.2275C120.715 18.3654 120.674 18.4895 120.577 18.5999C120.481 18.6964 120.37 18.7447 120.246 18.7447H118.095C118.039 18.7447 117.984 18.7378 117.929 18.724C117.874 18.6964 117.826 18.6688 117.784 18.6413C117.619 18.5585 117.453 18.4482 117.288 18.3102C117.122 18.1723 116.929 18.0482 116.708 17.9378C116.488 17.8275 116.212 17.7723 115.881 17.7723C115.508 17.7723 115.219 17.8551 115.012 18.0206C114.805 18.1861 114.702 18.3999 114.702 18.6619C114.702 18.8413 114.757 19.0068 114.867 19.1585C114.991 19.3102 115.233 19.4481 115.591 19.5723C115.964 19.6964 116.536 19.8343 117.308 19.9861C118.26 20.1378 119.019 20.386 119.584 20.7309C120.15 21.0619 120.55 21.455 120.784 21.9102C121.032 22.3515 121.157 22.8205 121.157 23.317C121.157 23.9791 120.957 24.5653 120.557 25.0756C120.157 25.586 119.57 25.9859 118.798 26.2756C118.039 26.5515 117.101 26.6894 115.984 26.6894Z" fill="#081A51"/>
<path d="M127.958 26.6894C126.33 26.6894 125.034 26.248 124.068 25.3653C123.103 24.4825 122.599 23.1722 122.558 21.4343C122.558 21.3378 122.558 21.2136 122.558 21.0619C122.558 20.9102 122.558 20.7929 122.558 20.7102C122.599 19.6205 122.841 18.6895 123.282 17.9171C123.737 17.1309 124.358 16.5378 125.144 16.1379C125.944 15.7241 126.875 15.5172 127.937 15.5172C129.151 15.5172 130.151 15.7586 130.937 16.2413C131.737 16.724 132.337 17.3792 132.737 18.2068C133.137 19.0344 133.337 19.9792 133.337 21.0412V21.5378C133.337 21.6895 133.289 21.8136 133.192 21.9102C133.096 22.0067 132.972 22.055 132.82 22.055H126.199C126.199 22.0688 126.199 22.0895 126.199 22.1171C126.199 22.1446 126.199 22.1722 126.199 22.1998C126.213 22.5998 126.282 22.9653 126.406 23.2963C126.544 23.6274 126.737 23.8894 126.985 24.0825C127.248 24.2756 127.565 24.3722 127.937 24.3722C128.213 24.3722 128.441 24.3308 128.62 24.248C128.813 24.1515 128.972 24.048 129.096 23.9377C129.22 23.8136 129.316 23.7101 129.385 23.6274C129.51 23.4756 129.606 23.386 129.675 23.3584C129.758 23.317 129.882 23.2963 130.047 23.2963H132.613C132.751 23.2963 132.861 23.3377 132.944 23.4205C133.041 23.5032 133.082 23.6136 133.068 23.7515C133.054 23.986 132.937 24.2687 132.716 24.5998C132.496 24.9308 132.172 25.2618 131.744 25.5928C131.33 25.9101 130.806 26.1721 130.172 26.379C129.537 26.5859 128.799 26.6894 127.958 26.6894ZM126.199 20.0067H129.696V19.9654C129.696 19.5102 129.627 19.124 129.489 18.8068C129.365 18.4757 129.165 18.2206 128.889 18.0413C128.627 17.862 128.31 17.7723 127.937 17.7723C127.579 17.7723 127.268 17.862 127.006 18.0413C126.744 18.2206 126.544 18.4757 126.406 18.8068C126.268 19.124 126.199 19.5102 126.199 19.9654V20.0067Z" fill="#081A51"/>
<path d="M138.504 26.6894C137.759 26.6894 137.09 26.5515 136.497 26.2756C135.918 25.9859 135.456 25.5997 135.111 25.117C134.766 24.6342 134.594 24.0894 134.594 23.4825C134.594 22.5033 134.994 21.7309 135.794 21.1653C136.594 20.586 137.656 20.1929 138.98 19.9861L141.566 19.593V19.3033C141.566 18.8068 141.463 18.4275 141.256 18.1654C141.049 17.9033 140.67 17.7723 140.118 17.7723C139.732 17.7723 139.415 17.8482 139.166 17.9999C138.932 18.1516 138.746 18.3585 138.608 18.6206C138.484 18.7999 138.311 18.8895 138.09 18.8895H135.773C135.621 18.8895 135.504 18.8481 135.422 18.7654C135.339 18.6688 135.304 18.5585 135.318 18.4344C135.318 18.1861 135.408 17.9033 135.587 17.5861C135.78 17.2551 136.07 16.9309 136.456 16.6137C136.842 16.2965 137.339 16.0344 137.946 15.8275C138.552 15.6206 139.29 15.5172 140.159 15.5172C141.042 15.5172 141.801 15.6206 142.435 15.8275C143.07 16.0344 143.587 16.3241 143.987 16.6965C144.387 17.0689 144.676 17.5102 144.856 18.0206C145.049 18.5171 145.145 19.0688 145.145 19.6757V25.9653C145.145 26.1032 145.09 26.2273 144.98 26.3377C144.883 26.4342 144.766 26.4825 144.628 26.4825H142.228C142.077 26.4825 141.952 26.4342 141.856 26.3377C141.759 26.2273 141.711 26.1032 141.711 25.9653V25.2411C141.532 25.5032 141.29 25.7446 140.987 25.9653C140.683 26.1859 140.325 26.3584 139.911 26.4825C139.511 26.6204 139.042 26.6894 138.504 26.6894ZM139.477 24.3308C139.877 24.3308 140.235 24.248 140.552 24.0825C140.883 23.9032 141.139 23.6343 141.318 23.2756C141.511 22.9032 141.608 22.4412 141.608 21.8895V21.5998L139.849 21.9102C139.201 22.0205 138.725 22.1929 138.421 22.4274C138.132 22.6481 137.987 22.9101 137.987 23.2136C137.987 23.4481 138.056 23.6481 138.194 23.8136C138.332 23.9791 138.511 24.1101 138.732 24.2067C138.966 24.2894 139.215 24.3308 139.477 24.3308Z" fill="#081A51"/>
<path d="M151.432 26.6894C150.646 26.6894 149.942 26.5101 149.321 26.1515C148.715 25.7928 148.239 25.2687 147.894 24.5791C147.549 23.8756 147.377 23.0205 147.377 22.0136V16.2413C147.377 16.0896 147.425 15.9654 147.521 15.8689C147.618 15.7723 147.742 15.7241 147.894 15.7241H150.48C150.632 15.7241 150.756 15.7723 150.852 15.8689C150.963 15.9654 151.018 16.0896 151.018 16.2413V21.8895C151.018 23.2412 151.618 23.917 152.818 23.917C153.383 23.917 153.832 23.7446 154.163 23.3998C154.508 23.0412 154.68 22.5377 154.68 21.8895V16.2413C154.68 16.0896 154.728 15.9654 154.825 15.8689C154.921 15.7723 155.045 15.7241 155.197 15.7241H157.783C157.935 15.7241 158.059 15.7723 158.156 15.8689C158.252 15.9654 158.301 16.0896 158.301 16.2413V25.9653C158.301 26.1032 158.252 26.2273 158.156 26.3377C158.059 26.4342 157.935 26.4825 157.783 26.4825H155.383C155.245 26.4825 155.121 26.4342 155.011 26.3377C154.914 26.2273 154.866 26.1032 154.866 25.9653V25.1791C154.508 25.6756 154.039 26.0549 153.459 26.317C152.894 26.5652 152.218 26.6894 151.432 26.6894Z" fill="#081A51"/>
</svg>
