<svg width="415" height="101" viewBox="0 0 415 101" fill="none" xmlns="http://www.w3.org/2000/svg">
<path d="M87.0594 0H13.9407C6.24148 0 0 6.24145 0 13.9407V87.0593C0 94.7586 6.24148 101 13.9407 101H87.0594C94.7586 101 101 94.7586 101 87.0593V13.9407C101 6.24145 94.7586 0 87.0594 0Z" fill="white"/>
<path d="M31.9865 16.6008C31.8612 16.5837 31.7341 16.5837 31.6088 16.6008L19.1296 21.7732C18.8824 21.8772 18.6713 22.0519 18.523 22.2754C18.3746 22.4988 18.2954 22.7611 18.2954 23.0293C18.2954 23.2975 18.3746 23.5598 18.523 23.7832C18.6713 24.0067 18.8824 24.1814 19.1296 24.2854L44.4822 34.6794C44.6839 34.7703 44.9046 34.8109 45.1254 34.7974C45.3463 34.784 45.5606 34.717 45.7497 34.6022C45.9388 34.4874 46.0971 34.3283 46.211 34.1386C46.3249 33.949 46.3909 33.7344 46.4033 33.5135V23.2346C46.3964 22.9438 46.2988 22.6625 46.1242 22.43L31.9865 16.6008Z" fill="white"/>
<path d="M54.6128 25.9109V33.809C54.6117 34.0341 54.6663 34.2559 54.7718 34.4547C54.8773 34.6535 55.0304 34.8231 55.2174 34.9483C55.4045 35.0735 55.6195 35.1505 55.8435 35.1723C56.0675 35.1941 56.2935 35.1601 56.5012 35.0734L66.6159 30.8534L54.6128 25.9109Z" fill="white"/>
<path d="M81.903 22.0194L69.3909 16.6828C69.2254 16.6095 69.0464 16.5716 68.8654 16.5716C68.6845 16.5716 68.5055 16.6095 68.34 16.6828L58.1924 20.9192L74.4154 27.6022L81.9194 24.466C82.1474 24.3521 82.3388 24.1767 82.4721 23.9596C82.6053 23.7425 82.675 23.4923 82.6733 23.2376C82.6716 22.9828 82.5986 22.7336 82.4624 22.5183C82.3263 22.303 82.1324 22.1301 81.903 22.0194V22.0194Z" fill="#0BBBEF"/>
<path d="M44.7608 21.8718C44.5348 21.9801 44.344 22.1501 44.2103 22.3621C44.0767 22.5742 44.0056 22.8197 44.0055 23.0704V83.0694C44.002 83.3392 44.0796 83.6039 44.2284 83.829C44.3771 84.0542 44.5901 84.2294 44.8396 84.3321C45.0892 84.4347 45.3639 84.46 45.628 84.4047C45.892 84.3494 46.1334 84.216 46.3208 84.0218L55.6309 74.7116C55.7585 74.5863 55.8599 74.4368 55.9291 74.2719C55.9983 74.1069 56.0339 73.9299 56.0339 73.7511C56.0339 73.5722 55.9983 73.3951 55.9291 73.2302C55.8599 73.0653 55.7585 72.9158 55.6309 72.7905L53.5292 70.6887C53.2755 70.4334 53.1331 70.088 53.1331 69.7281C53.1331 69.3682 53.2755 69.0229 53.5292 68.7675L55.6309 66.6658C55.7585 66.5405 55.8599 66.391 55.9291 66.226C55.9983 66.0611 56.0339 65.884 56.0339 65.7052C56.0339 65.5263 55.9983 65.3493 55.9291 65.1844C55.8599 65.0194 55.7585 64.87 55.6309 64.7446L53.5292 62.6429C53.2755 62.3875 53.1331 62.0422 53.1331 61.6823C53.1331 61.3223 53.2755 60.977 53.5292 60.7217L55.6638 58.5871C55.9087 58.3305 56.0454 57.9894 56.0454 57.6347C56.0454 57.28 55.9087 56.9389 55.6638 56.6824L53.447 54.3343C53.2053 54.0859 53.0701 53.7531 53.0701 53.4066C53.0701 53.06 53.2053 52.7271 53.447 52.4788L56.222 49.5068C56.3424 49.3859 56.4377 49.2424 56.5025 49.0846C56.5673 48.9268 56.6004 48.7578 56.5998 48.5872V26.7321L44.7608 21.8718Z" fill="#081A51"/>
<path d="M31.9037 16.5678L19.1617 21.7402C18.9032 21.8468 18.6821 22.0278 18.5266 22.2602C18.3711 22.4926 18.2881 22.7659 18.2881 23.0456C18.2881 23.3252 18.3711 23.5986 18.5266 23.831C18.6821 24.0634 18.9032 24.2443 19.1617 24.351L53.0691 38.3081L68.7996 31.74L31.9037 16.5678Z" fill="white"/>
<path d="M31.9037 16.5678L19.1617 21.7402C18.9032 21.8468 18.6821 22.0278 18.5266 22.2602C18.3711 22.4926 18.2881 22.7659 18.2881 23.0456C18.2881 23.3252 18.3711 23.5986 18.5266 23.831C18.6821 24.0634 18.9032 24.2443 19.1617 24.351L53.0691 38.3081L68.7996 31.74L31.9037 16.5678Z" fill="#081A51"/>
<path d="M148.813 69.2911C148.416 69.2911 148.091 69.1647 147.838 68.9121C147.586 68.6234 147.459 68.2986 147.459 67.9377V39.8967H137.824C137.427 39.8967 137.102 39.7704 136.849 39.5178C136.597 39.2291 136.47 38.9043 136.47 38.5434V32.7512C136.47 32.3542 136.597 32.0294 136.849 31.7768C137.102 31.5241 137.427 31.3978 137.824 31.3978H166.947C167.344 31.3978 167.669 31.5241 167.922 31.7768C168.174 32.0294 168.301 32.3542 168.301 32.7512V38.5434C168.301 38.9043 168.174 39.2291 167.922 39.5178C167.669 39.7704 167.344 39.8967 166.947 39.8967H157.311V67.9377C157.311 68.2986 157.185 68.6234 156.933 68.9121C156.68 69.1647 156.355 69.2911 155.958 69.2911H148.813Z" fill="white"/>
<path d="M171.176 69.2911C170.779 69.2911 170.455 69.1647 170.202 68.9121C169.949 68.6234 169.823 68.2986 169.823 67.9377V42.4951C169.823 42.1342 169.949 41.8275 170.202 41.5749C170.455 41.2862 170.779 41.1418 171.176 41.1418H177.402C177.799 41.1418 178.123 41.2862 178.376 41.5749C178.665 41.8275 178.809 42.1342 178.809 42.4951V44.6605C179.747 43.5417 180.884 42.6756 182.22 42.0621C183.591 41.4486 185.125 41.1418 186.821 41.1418H189.203C189.6 41.1418 189.924 41.2681 190.177 41.5207C190.43 41.7734 190.556 42.0982 190.556 42.4951V48.0709C190.556 48.4317 190.43 48.7565 190.177 49.0453C189.924 49.2979 189.6 49.4242 189.203 49.4242H183.952C182.472 49.4242 181.317 49.8392 180.487 50.6692C179.693 51.4632 179.296 52.6 179.296 54.0796V67.9377C179.296 68.2986 179.152 68.6234 178.863 68.9121C178.611 69.1647 178.286 69.2911 177.889 69.2911H171.176Z" fill="white"/>
<path d="M207.51 69.8324C204.479 69.8324 201.917 69.3452 199.823 68.3708C197.766 67.3964 196.178 66.007 195.06 64.2025C193.977 62.362 193.363 60.1786 193.219 57.6524C193.183 56.9306 193.165 56.1186 193.165 55.2164C193.165 54.2781 193.183 53.4661 193.219 52.7804C193.363 50.2181 194.013 48.0348 195.168 46.2303C196.323 44.4259 197.929 43.0365 199.986 42.0621C202.079 41.0877 204.587 40.6005 207.51 40.6005C210.47 40.6005 212.978 41.0877 215.035 42.0621C217.128 43.0365 218.752 44.4259 219.907 46.2303C221.062 48.0348 221.711 50.2181 221.856 52.7804C221.892 53.4661 221.91 54.2781 221.91 55.2164C221.91 56.1186 221.892 56.9306 221.856 57.6524C221.711 60.1786 221.08 62.362 219.961 64.2025C218.878 66.007 217.29 67.3964 215.197 68.3708C213.14 69.3452 210.578 69.8324 207.51 69.8324ZM207.51 63.2281C209.134 63.2281 210.307 62.7409 211.029 61.7665C211.787 60.7921 212.22 59.3305 212.328 57.3818C212.364 56.8404 212.382 56.1186 212.382 55.2164C212.382 54.3142 212.364 53.5924 212.328 53.0511C212.22 51.1384 211.787 49.6948 211.029 48.7204C210.307 47.71 209.134 47.2047 207.51 47.2047C205.958 47.2047 204.786 47.71 203.992 48.7204C203.234 49.6948 202.819 51.1384 202.747 53.0511C202.71 53.5924 202.692 54.3142 202.692 55.2164C202.692 56.1186 202.71 56.8404 202.747 57.3818C202.819 59.3305 203.234 60.7921 203.992 61.7665C204.786 62.7409 205.958 63.2281 207.51 63.2281Z" fill="white"/>
<path d="M237.626 69.8324C235.569 69.8324 233.728 69.3632 232.104 68.4249C230.517 67.4866 229.272 66.1152 228.369 64.3108C227.467 62.4703 227.016 60.2328 227.016 57.5983V42.4951C227.016 42.0982 227.142 41.7734 227.395 41.5207C227.648 41.2681 227.972 41.1418 228.369 41.1418H235.136C235.533 41.1418 235.858 41.2681 236.11 41.5207C236.399 41.7734 236.543 42.0982 236.543 42.4951V57.2735C236.543 60.8102 238.113 62.5785 241.253 62.5785C242.733 62.5785 243.906 62.1274 244.772 61.2252C245.674 60.2869 246.125 58.9697 246.125 57.2735V42.4951C246.125 42.0982 246.251 41.7734 246.504 41.5207C246.757 41.2681 247.081 41.1418 247.478 41.1418H254.245C254.642 41.1418 254.967 41.2681 255.219 41.5207C255.472 41.7734 255.598 42.0982 255.598 42.4951V67.9377C255.598 68.2986 255.472 68.6234 255.219 68.9121C254.967 69.1647 254.642 69.2911 254.245 69.2911H247.966C247.605 69.2911 247.28 69.1647 246.991 68.9121C246.738 68.6234 246.612 68.2986 246.612 67.9377V65.8807C245.674 67.1799 244.447 68.1723 242.931 68.858C241.451 69.5076 239.683 69.8324 237.626 69.8324Z" fill="white"/>
<path d="M273.55 69.8324C271.204 69.8324 269.202 69.5798 267.541 69.0745C265.917 68.5332 264.582 67.8836 263.536 67.1257C262.525 66.3679 261.767 65.592 261.262 64.798C260.757 63.968 260.486 63.2462 260.45 62.6327C260.414 62.2357 260.54 61.9109 260.829 61.6583C261.118 61.4057 261.424 61.2793 261.749 61.2793H267.92C268.029 61.2793 268.119 61.2974 268.191 61.3335C268.299 61.3696 268.408 61.4417 268.516 61.55C268.985 61.8026 269.454 62.1274 269.923 62.5244C270.392 62.8853 270.934 63.2101 271.547 63.4988C272.161 63.7875 272.901 63.9319 273.767 63.9319C274.777 63.9319 275.625 63.7334 276.311 63.3364C276.997 62.9033 277.34 62.3079 277.34 61.55C277.34 60.9726 277.177 60.5034 276.852 60.1425C276.528 59.7456 275.86 59.3666 274.849 59.0057C273.875 58.6449 272.395 58.284 270.41 57.9231C268.534 57.49 266.892 56.9306 265.484 56.245C264.077 55.5232 262.994 54.6029 262.236 53.4842C261.479 52.3293 261.1 50.9399 261.1 49.3159C261.1 47.8724 261.569 46.4829 262.507 45.1477C263.445 43.8124 264.817 42.7297 266.621 41.8997C268.426 41.0335 270.663 40.6005 273.334 40.6005C275.391 40.6005 277.195 40.8531 278.747 41.3583C280.299 41.8275 281.598 42.441 282.645 43.1989C283.691 43.9567 284.485 44.7326 285.026 45.5266C285.568 46.3205 285.856 47.0423 285.893 47.6919C285.929 48.0528 285.82 48.3776 285.568 48.6663C285.315 48.9189 285.026 49.0453 284.702 49.0453H279.072C278.927 49.0453 278.783 49.0272 278.639 48.9911C278.494 48.9189 278.368 48.8468 278.26 48.7746C277.827 48.558 277.394 48.2693 276.961 47.9085C276.528 47.5476 276.022 47.2228 275.445 46.9341C274.867 46.6453 274.146 46.501 273.28 46.501C272.305 46.501 271.547 46.7175 271.006 47.1506C270.465 47.5837 270.194 48.143 270.194 48.8287C270.194 49.2979 270.338 49.7309 270.627 50.1279C270.952 50.5249 271.583 50.8858 272.522 51.2106C273.496 51.5354 274.994 51.8963 277.015 52.2932C279.505 52.6902 281.49 53.3398 282.969 54.242C284.449 55.1082 285.496 56.1367 286.109 57.3276C286.759 58.4825 287.084 59.7095 287.084 61.0087C287.084 62.7409 286.56 64.2747 285.514 65.61C284.467 66.9453 282.933 67.9919 280.912 68.7497C278.927 69.4715 276.473 69.8324 273.55 69.8324Z" fill="white"/>
<path d="M303.471 69.8324C301.126 69.8324 299.123 69.5798 297.463 69.0745C295.839 68.5332 294.503 67.8836 293.457 67.1257C292.446 66.3679 291.688 65.592 291.183 64.798C290.678 63.968 290.407 63.2462 290.371 62.6327C290.335 62.2357 290.461 61.9109 290.75 61.6583C291.039 61.4057 291.346 61.2793 291.67 61.2793H297.842C297.95 61.2793 298.04 61.2974 298.112 61.3335C298.221 61.3696 298.329 61.4417 298.437 61.55C298.906 61.8026 299.375 62.1274 299.845 62.5244C300.314 62.8853 300.855 63.2101 301.469 63.4988C302.082 63.7875 302.822 63.9319 303.688 63.9319C304.699 63.9319 305.547 63.7334 306.232 63.3364C306.918 62.9033 307.261 62.3079 307.261 61.55C307.261 60.9726 307.098 60.5034 306.774 60.1425C306.449 59.7456 305.781 59.3666 304.771 59.0057C303.796 58.6449 302.317 58.284 300.332 57.9231C298.455 57.49 296.813 56.9306 295.406 56.245C293.998 55.5232 292.916 54.6029 292.158 53.4842C291.4 52.3293 291.021 50.9399 291.021 49.3159C291.021 47.8724 291.49 46.4829 292.428 45.1477C293.367 43.8124 294.738 42.7297 296.542 41.8997C298.347 41.0335 300.584 40.6005 303.255 40.6005C305.312 40.6005 307.116 40.8531 308.668 41.3583C310.22 41.8275 311.519 42.441 312.566 43.1989C313.612 43.9567 314.406 44.7326 314.948 45.5266C315.489 46.3205 315.778 47.0423 315.814 47.6919C315.85 48.0528 315.742 48.3776 315.489 48.6663C315.236 48.9189 314.948 49.0453 314.623 49.0453H308.993C308.849 49.0453 308.704 49.0272 308.56 48.9911C308.416 48.9189 308.289 48.8468 308.181 48.7746C307.748 48.558 307.315 48.2693 306.882 47.9085C306.449 47.5476 305.944 47.2228 305.366 46.9341C304.789 46.6453 304.067 46.501 303.201 46.501C302.226 46.501 301.469 46.7175 300.927 47.1506C300.386 47.5837 300.115 48.143 300.115 48.8287C300.115 49.2979 300.26 49.7309 300.548 50.1279C300.873 50.5249 301.505 50.8858 302.443 51.2106C303.417 51.5354 304.915 51.8963 306.936 52.2932C309.426 52.6902 311.411 53.3398 312.891 54.242C314.37 55.1082 315.417 56.1367 316.03 57.3276C316.68 58.4825 317.005 59.7095 317.005 61.0087C317.005 62.7409 316.481 64.2747 315.435 65.61C314.388 66.9453 312.855 67.9919 310.834 68.7497C308.849 69.4715 306.395 69.8324 303.471 69.8324Z" fill="white"/>
<path d="M334.8 69.8324C330.542 69.8324 327.149 68.6775 324.623 66.3679C322.097 64.0582 320.78 60.6297 320.671 56.0826C320.671 55.8299 320.671 55.5051 320.671 55.1082C320.671 54.7112 320.671 54.4044 320.671 54.1879C320.78 51.3369 321.411 48.9009 322.566 46.8799C323.757 44.8229 325.381 43.271 327.438 42.2245C329.531 41.1418 331.967 40.6005 334.746 40.6005C337.922 40.6005 340.538 41.232 342.595 42.4951C344.689 43.7582 346.258 45.4725 347.305 47.6378C348.352 49.8031 348.875 52.2752 348.875 55.054V56.3532C348.875 56.7502 348.749 57.075 348.496 57.3276C348.243 57.5802 347.918 57.7066 347.522 57.7066H330.199C330.199 57.7426 330.199 57.7968 330.199 57.869C330.199 57.9411 330.199 58.0133 330.199 58.0855C330.235 59.1321 330.415 60.0884 330.74 60.9545C331.101 61.8207 331.606 62.5064 332.256 63.0116C332.942 63.5168 333.772 63.7695 334.746 63.7695C335.468 63.7695 336.063 63.6612 336.532 63.4447C337.038 63.192 337.453 62.9214 337.778 62.6327C338.102 62.3079 338.355 62.0372 338.535 61.8207C338.86 61.4237 339.113 61.1891 339.293 61.1169C339.51 61.0087 339.835 60.9545 340.268 60.9545H346.98C347.341 60.9545 347.63 61.0628 347.846 61.2793C348.099 61.4959 348.207 61.7846 348.171 62.1455C348.135 62.759 347.828 63.4988 347.251 64.3649C346.673 65.2311 345.825 66.0972 344.707 66.9633C343.624 67.7934 342.253 68.4791 340.592 69.0204C338.932 69.5617 337.002 69.8324 334.8 69.8324ZM330.199 52.3474H339.347V52.2391C339.347 51.0482 339.167 50.0377 338.806 49.2076C338.481 48.3415 337.958 47.6739 337.236 47.2047C336.551 46.7356 335.72 46.501 334.746 46.501C333.808 46.501 332.996 46.7356 332.31 47.2047C331.624 47.6739 331.101 48.3415 330.74 49.2076C330.379 50.0377 330.199 51.0482 330.199 52.2391V52.3474Z" fill="white"/>
<path d="M362.395 69.8324C360.446 69.8324 358.695 69.4715 357.144 68.7497C355.628 67.9919 354.419 66.9814 353.517 65.7183C352.615 64.4552 352.163 63.0296 352.163 61.4417C352.163 58.8794 353.21 56.8585 355.303 55.3788C357.396 53.8631 360.175 52.8346 363.64 52.2932L370.406 51.2647V50.5068C370.406 49.2076 370.136 48.2152 369.594 47.5295C369.053 46.8438 368.061 46.501 366.617 46.501C365.607 46.501 364.776 46.6995 364.127 47.0965C363.513 47.4934 363.026 48.0348 362.665 48.7204C362.34 49.1896 361.889 49.4242 361.312 49.4242H355.249C354.852 49.4242 354.545 49.3159 354.329 49.0994C354.112 48.8468 354.022 48.558 354.058 48.2333C354.058 47.5837 354.293 46.8438 354.762 46.0138C355.267 45.1477 356.025 44.2996 357.035 43.4695C358.046 42.6395 359.345 41.9538 360.933 41.4125C362.521 40.8711 364.452 40.6005 366.725 40.6005C369.035 40.6005 371.02 40.8711 372.68 41.4125C374.34 41.9538 375.693 42.7117 376.74 43.6861C377.786 44.6605 378.544 45.8153 379.013 47.1506C379.519 48.4498 379.771 49.8933 379.771 51.4812V67.9377C379.771 68.2986 379.627 68.6234 379.338 68.9121C379.086 69.1647 378.779 69.2911 378.418 69.2911H372.139C371.742 69.2911 371.417 69.1647 371.164 68.9121C370.912 68.6234 370.785 68.2986 370.785 67.9377V66.0431C370.316 66.7288 369.685 67.3603 368.891 67.9377C368.097 68.5151 367.158 68.9663 366.076 69.2911C365.029 69.6519 363.802 69.8324 362.395 69.8324ZM364.939 63.6612C365.985 63.6612 366.924 63.4447 367.754 63.0116C368.62 62.5424 369.288 61.8387 369.757 60.9004C370.262 59.926 370.515 58.717 370.515 57.2735V56.5156L365.913 57.3276C364.217 57.6163 362.972 58.0674 362.178 58.681C361.42 59.2584 361.041 59.9441 361.041 60.738C361.041 61.3515 361.222 61.8748 361.583 62.3079C361.943 62.7409 362.413 63.0838 362.99 63.3364C363.604 63.5529 364.253 63.6612 364.939 63.6612Z" fill="white"/>
<path d="M396.219 69.8324C394.162 69.8324 392.322 69.3632 390.698 68.4249C389.11 67.4866 387.865 66.1152 386.963 64.3108C386.06 62.4703 385.609 60.2328 385.609 57.5983V42.4951C385.609 42.0982 385.736 41.7734 385.988 41.5207C386.241 41.2681 386.566 41.1418 386.963 41.1418H393.729C394.126 41.1418 394.451 41.2681 394.704 41.5207C394.992 41.7734 395.137 42.0982 395.137 42.4951V57.2735C395.137 60.8102 396.707 62.5785 399.846 62.5785C401.326 62.5785 402.499 62.1274 403.365 61.2252C404.267 60.2869 404.718 58.9697 404.718 57.2735V42.4951C404.718 42.0982 404.845 41.7734 405.097 41.5207C405.35 41.2681 405.675 41.1418 406.072 41.1418H412.838C413.235 41.1418 413.56 41.2681 413.813 41.5207C414.065 41.7734 414.192 42.0982 414.192 42.4951V67.9377C414.192 68.2986 414.065 68.6234 413.813 68.9121C413.56 69.1647 413.235 69.2911 412.838 69.2911H406.559C406.198 69.2911 405.873 69.1647 405.584 68.9121C405.332 68.6234 405.205 68.2986 405.205 67.9377V65.8807C404.267 67.1799 403.04 68.1723 401.524 68.858C400.045 69.5076 398.276 69.8324 396.219 69.8324Z" fill="white"/>
</svg>
