<svg width="501" height="501" viewBox="0 0 501 501" fill="none" xmlns="http://www.w3.org/2000/svg">
<path d="M431.849 0H69.1514C30.9602 0 0 30.96 0 69.1512V431.849C0 470.04 30.9602 501 69.1514 501H431.849C470.04 501 501 470.04 501 431.849V69.1512C501 30.96 470.04 0 431.849 0Z" fill="white"/>
<path d="M158.667 82.3453C158.045 82.2605 157.415 82.2605 156.793 82.3453L94.8913 108.002C93.665 108.518 92.6182 109.385 91.8822 110.493C91.1461 111.602 90.7534 112.903 90.7534 114.233C90.7534 115.564 91.1461 116.865 91.8822 117.973C92.6182 119.081 93.665 119.948 94.8913 120.464L220.65 172.022C221.651 172.473 222.746 172.674 223.841 172.608C224.936 172.541 225.999 172.208 226.938 171.639C227.876 171.07 228.661 170.281 229.226 169.34C229.791 168.399 230.118 167.335 230.18 166.239V115.251C230.145 113.809 229.661 112.414 228.795 111.26L158.667 82.3453Z" fill="white"/>
<path d="M270.901 128.528V167.706C270.896 168.822 271.167 169.923 271.69 170.909C272.213 171.895 272.973 172.736 273.901 173.357C274.828 173.979 275.895 174.36 277.006 174.469C278.117 174.577 279.238 174.408 280.268 173.978L330.442 153.045L270.901 128.528Z" fill="white"/>
<path d="M406.273 109.225L344.208 82.754C343.387 82.3904 342.499 82.2025 341.601 82.2025C340.704 82.2025 339.816 82.3904 338.995 82.754L288.659 103.768L369.131 136.918L406.354 121.361C407.485 120.797 408.434 119.927 409.095 118.85C409.756 117.773 410.102 116.532 410.094 115.268C410.085 114.004 409.723 112.768 409.048 111.7C408.372 110.632 407.411 109.775 406.273 109.225V109.225Z" fill="#0BBBEF"/>
<path d="M222.032 108.492C220.91 109.029 219.964 109.872 219.301 110.924C218.638 111.976 218.285 113.194 218.285 114.438V412.057C218.267 413.395 218.653 414.708 219.39 415.825C220.128 416.941 221.185 417.811 222.422 418.32C223.66 418.829 225.023 418.955 226.333 418.68C227.643 418.406 228.84 417.744 229.769 416.781L275.952 370.599C276.585 369.977 277.087 369.235 277.431 368.417C277.774 367.599 277.951 366.721 277.951 365.834C277.951 364.947 277.774 364.068 277.431 363.25C277.087 362.432 276.585 361.691 275.952 361.069L265.526 350.643C264.268 349.377 263.562 347.664 263.562 345.878C263.562 344.093 264.268 342.38 265.526 341.114L275.952 330.688C276.585 330.066 277.087 329.325 277.431 328.507C277.774 327.689 277.951 326.81 277.951 325.923C277.951 325.036 277.774 324.158 277.431 323.34C277.087 322.522 276.585 321.78 275.952 321.158L265.526 310.733C264.268 309.466 263.562 307.753 263.562 305.968C263.562 304.182 264.268 302.47 265.526 301.203L276.115 290.615C277.33 289.342 278.007 287.65 278.007 285.89C278.007 284.131 277.33 282.439 276.115 281.166L265.119 269.519C263.92 268.287 263.249 266.636 263.249 264.917C263.249 263.198 263.92 261.547 265.119 260.315L278.884 245.573C279.48 244.973 279.953 244.261 280.275 243.479C280.596 242.696 280.76 241.857 280.757 241.011V132.601L222.032 108.492Z" fill="#081A51"/>
<path d="M158.254 82.1835L95.0486 107.84C93.7663 108.369 92.6699 109.267 91.8985 110.42C91.1271 111.573 90.7153 112.929 90.7153 114.316C90.7153 115.703 91.1271 117.059 91.8985 118.211C92.6699 119.364 93.7663 120.262 95.0486 120.791L263.243 190.024L341.273 157.443L158.254 82.1835Z" fill="white"/>
<path d="M158.254 82.1835L95.0486 107.84C93.7663 108.369 92.6699 109.267 91.8985 110.42C91.1271 111.573 90.7153 112.929 90.7153 114.316C90.7153 115.703 91.1271 117.059 91.8985 118.211C92.6699 119.364 93.7663 120.262 95.0486 120.791L263.243 190.024L341.273 157.443L158.254 82.1835Z" fill="#081A51"/>
</svg>
